<?xml version="1.0" encoding="UTF-8" standalone="no"?>
<!DOCTYPE svg PUBLIC "-//W3C//DTD SVG 1.1//EN" "http://www.w3.org/Graphics/SVG/1.1/DTD/svg11.dtd">
<svg width="100%" height="100%" viewBox="0 0 161 161" version="1.1" xmlns="http://www.w3.org/2000/svg" xmlns:xlink="http://www.w3.org/1999/xlink" xml:space="preserve" xmlns:serif="http://www.serif.com/" style="fill-rule:evenodd;clip-rule:evenodd;stroke-linejoin:round;stroke-miterlimit:2;">
    <g transform="matrix(1,0,0,1,-406.221,-408.11)">
        <path d="M501.576,488.142C501.576,479.695 494.705,472.824 486.259,472.824C477.813,472.824 470.942,479.695 470.942,488.142C470.942,489.452 472.004,490.515 473.315,490.515C474.625,490.515 475.688,489.452 475.688,488.142C475.688,482.312 480.43,477.57 486.259,477.57C492.087,477.57 496.83,482.312 496.83,488.142C496.83,501.108 486.281,511.657 473.315,511.657C468.306,511.657 463.527,510.107 459.495,507.176C458.434,506.407 456.951,506.64 456.179,507.7C455.409,508.761 455.644,510.244 456.704,511.016C461.552,514.54 467.296,516.403 473.315,516.403C488.898,516.403 501.576,503.726 501.576,488.142ZM483.357,528.04C483.56,528.04 483.765,528.014 483.97,527.959C501.476,523.293 514.033,507.37 514.505,489.237C514.51,489.049 514.487,488.866 514.45,488.689C514.492,488.513 514.52,488.33 514.52,488.141C514.518,484.39 513.797,480.747 512.375,477.314C511.873,476.102 510.484,475.528 509.274,476.03C508.063,476.532 507.488,477.921 507.99,479.131C509.172,481.985 509.773,485.018 509.774,488.143C509.774,488.31 509.792,488.472 509.825,488.628C509.788,488.785 509.765,488.947 509.761,489.114C509.343,505.157 498.235,519.246 482.748,523.374C481.481,523.711 480.728,525.011 481.066,526.277C481.349,527.339 482.308,528.04 483.357,528.04ZM469.002,529.126C469.085,529.135 469.168,529.139 469.25,529.139C470.451,529.139 471.481,528.231 471.608,527.011C471.744,525.707 470.796,524.541 469.493,524.405C450.886,522.473 436.855,506.882 436.855,488.142C436.855,469.467 447.185,452.595 463.814,444.11C464.982,443.515 465.446,442.085 464.85,440.918C464.253,439.75 462.822,439.288 461.658,439.882C443.431,449.182 432.109,467.674 432.109,488.142C432.109,509.321 447.969,526.94 469.002,529.126ZM483.89,541.261C485.176,541.007 486.012,539.759 485.758,538.473C485.503,537.186 484.25,536.353 482.97,536.604C479.813,537.228 476.564,537.545 473.315,537.545C460.478,537.545 448.319,532.654 439.078,523.775C438.131,522.867 436.63,522.897 435.722,523.842C434.814,524.787 434.844,526.289 435.789,527.197C445.918,536.931 459.246,542.291 473.315,542.291C476.873,542.291 480.43,541.944 483.89,541.261ZM493.03,552.297C494.283,551.913 494.988,550.586 494.603,549.333C494.219,548.08 492.89,547.374 491.639,547.76C485.729,549.57 479.564,550.489 473.315,550.489C463.334,550.489 453.804,548.209 444.99,543.71C443.823,543.116 442.393,543.578 441.796,544.745C441.201,545.913 441.665,547.342 442.832,547.938C452.321,552.78 462.577,555.235 473.315,555.235C480.036,555.235 486.668,554.247 493.03,552.297ZM410.967,488.142C410.967,469.482 417.829,451.587 430.288,437.754C431.165,436.78 431.085,435.279 430.112,434.402C429.138,433.525 427.637,433.604 426.76,434.578C413.515,449.284 406.221,468.307 406.221,488.142C406.221,508.207 415.083,527.053 430.532,539.847C430.975,540.213 431.511,540.392 432.044,540.392C432.727,540.392 433.404,540.099 433.874,539.532C434.709,538.522 434.569,537.026 433.559,536.19C419.202,524.302 410.967,506.789 410.967,488.142ZM532.212,515.139C532.51,515.262 532.818,515.32 533.121,515.32C534.051,515.32 534.935,514.769 535.314,513.855C538.696,505.699 540.41,497.048 540.409,488.142C540.41,478.484 537.841,469.006 532.98,460.732C532.317,459.603 530.863,459.225 529.732,459.889C528.602,460.553 528.224,462.007 528.888,463.137C533.321,470.682 535.664,479.328 535.663,488.142C535.664,496.421 534.071,504.461 530.929,512.037C530.427,513.249 531.001,514.637 532.212,515.139ZM527.636,523.444C526.566,522.691 525.083,522.945 524.33,524.019C519.077,531.479 512.116,537.811 504.202,542.327C503.063,542.978 502.667,544.427 503.316,545.564C503.754,546.332 504.555,546.762 505.379,546.762C505.779,546.762 506.182,546.661 506.553,546.45C515.07,541.59 522.557,534.778 528.21,526.751C528.965,525.68 528.708,524.199 527.636,523.444ZM519.167,547.888C506.211,557.841 490.702,563.215 474.315,563.427C473.004,563.444 471.956,564.52 471.972,565.83C471.989,567.131 473.048,568.173 474.344,568.173L474.375,568.173C491.795,567.947 508.284,562.234 522.057,551.651C523.098,550.853 523.293,549.363 522.495,548.324C521.695,547.285 520.206,547.09 519.167,547.888ZM460.572,562.362C455.42,561.486 450.422,560.069 445.608,558.165C450.86,561.221 456.477,563.717 462.393,565.539C462.446,565.399 462.488,565.253 462.514,565.1C462.734,563.808 461.864,562.582 460.572,562.362ZM551.83,533.495C550.715,532.811 549.252,533.158 548.566,534.276C542.958,543.412 535.649,551.466 527.184,558.008C537.295,552.072 545.999,544.01 552.687,534.429C552.496,534.058 552.211,533.729 551.83,533.495ZM563.924,485.768C562.614,485.768 561.551,486.831 561.551,488.142C561.552,499.857 559.299,511.231 554.856,521.949C554.354,523.16 554.929,524.549 556.139,525.051C556.437,525.174 556.745,525.232 557.047,525.232C557.582,525.232 558.087,525.033 558.504,524.706C559.227,523.281 559.915,521.838 560.554,520.366C564.356,510.073 566.298,499.254 566.297,488.142C566.297,486.831 565.235,485.768 563.924,485.768ZM486.259,464.627C491.268,464.627 496.047,466.177 500.081,469.108C501.144,469.878 502.625,469.644 503.396,468.584C504.167,467.523 503.931,466.039 502.872,465.268C498.021,461.744 492.277,459.881 486.259,459.881C470.675,459.881 457.998,472.559 457.998,488.142C457.998,496.588 464.869,503.459 473.315,503.459C481.761,503.459 488.632,496.588 488.632,488.142C488.632,486.831 487.57,485.768 486.259,485.768C484.949,485.768 483.886,486.831 483.886,488.142C483.886,493.971 479.144,498.713 473.315,498.713C467.486,498.713 462.744,493.971 462.744,488.142C462.744,475.176 473.292,464.627 486.259,464.627ZM476.826,452.911C478.092,452.573 478.845,451.273 478.507,450.007C478.169,448.739 476.867,447.987 475.603,448.325C458.096,452.992 445.541,468.915 445.069,487.048C445.064,487.235 445.086,487.417 445.124,487.593C445.082,487.769 445.053,487.951 445.053,488.141C445.052,491.891 445.774,495.534 447.199,498.971C447.578,499.884 448.461,500.435 449.392,500.435C449.695,500.435 450.002,500.377 450.3,500.254C451.51,499.752 452.085,498.363 451.583,497.152C450.399,494.296 449.798,491.265 449.799,488.143C449.799,487.976 449.782,487.813 449.749,487.656C449.786,487.5 449.809,487.338 449.813,487.171C450.231,471.128 461.338,457.04 476.826,452.911ZM490.571,447.159C489.269,447.023 488.101,447.97 487.965,449.274C487.83,450.578 488.777,451.744 490.081,451.88C508.687,453.811 522.718,469.4 522.718,488.142C522.718,506.817 512.388,523.689 495.76,532.173C494.592,532.769 494.128,534.198 494.724,535.365C495.144,536.187 495.977,536.661 496.84,536.661C497.204,536.661 497.572,536.577 497.917,536.401C516.142,527.103 527.464,508.61 527.464,488.142C527.464,466.961 511.604,449.343 490.571,447.159ZM522.14,453.17C522.763,453.17 523.385,452.926 523.851,452.441C524.759,451.496 524.729,449.994 523.784,449.086C513.656,439.352 500.329,433.992 486.259,433.992C482.702,433.992 479.143,434.339 475.683,435.022C474.397,435.276 473.561,436.524 473.815,437.81C474.069,439.098 475.32,439.928 476.603,439.679C479.76,439.055 483.009,438.738 486.259,438.738C499.097,438.738 511.255,443.629 520.495,452.508C520.956,452.95 521.547,453.17 522.14,453.17ZM529.042,436.436C528.032,435.602 526.537,435.742 525.701,436.751C524.865,437.761 525.005,439.257 526.015,440.093C540.373,451.981 548.607,469.494 548.607,488.142C548.607,506.801 541.746,524.696 529.287,538.53C528.41,539.504 528.489,541.005 529.462,541.882C529.916,542.29 530.484,542.491 531.049,542.491C531.699,542.491 532.345,542.227 532.814,541.706C546.059,526.999 553.353,507.976 553.353,488.142C553.353,468.076 544.492,449.23 529.042,436.436ZM427.362,461.144C426.147,460.642 424.762,461.218 424.26,462.428C420.878,470.584 419.165,479.235 419.166,488.142C419.167,497.801 421.735,507.278 426.594,515.551C427.036,516.303 427.829,516.723 428.642,516.723C429.05,516.723 429.464,516.616 429.842,516.395C430.972,515.731 431.35,514.276 430.686,513.147C426.255,505.602 423.913,496.956 423.912,488.142C423.911,479.862 425.503,471.822 428.645,464.246C429.147,463.035 428.573,461.646 427.362,461.144ZM431.938,452.839C432.353,453.131 432.83,453.271 433.302,453.271C434.048,453.271 434.783,452.921 435.245,452.265C440.498,444.804 447.458,438.473 455.373,433.956C456.511,433.306 456.908,431.856 456.258,430.719C455.607,429.579 454.159,429.187 453.021,429.833C444.504,434.693 437.016,441.505 431.364,449.532C430.609,450.603 430.867,452.084 431.938,452.839ZM516.742,428.345C507.253,423.503 496.998,421.048 486.259,421.048C479.539,421.048 472.906,422.036 466.544,423.986C465.292,424.37 464.586,425.697 464.971,426.95C465.355,428.204 466.685,428.908 467.935,428.523C473.845,426.713 480.01,425.794 486.259,425.794C496.24,425.794 505.77,428.074 514.584,432.573C514.93,432.749 515.297,432.833 515.662,432.833C516.525,432.833 517.357,432.359 517.778,431.538C518.374,430.37 517.909,428.941 516.742,428.345ZM561.035,479.265C561.176,480.473 562.202,481.361 563.389,481.361C563.481,481.361 563.575,481.356 563.668,481.346C564.97,481.192 565.902,480.014 565.75,478.712C563.448,459.064 553.959,441.033 539.032,427.94C538.047,427.078 536.547,427.174 535.683,428.16C534.819,429.145 534.917,430.644 535.903,431.509C549.945,443.825 558.871,460.785 561.035,479.265ZM437.079,427.959C437.546,428.567 438.25,428.887 438.962,428.887C439.466,428.887 439.975,428.727 440.406,428.395C453.362,418.442 468.872,413.068 485.258,412.856C486.569,412.839 487.618,411.763 487.601,410.453C487.584,409.152 486.525,408.11 485.229,408.11L485.198,408.11C467.778,408.336 451.29,414.049 437.515,424.632C436.475,425.431 436.28,426.92 437.079,427.959ZM525.965,423.738C525.552,423.738 525.133,423.631 524.753,423.404C516.792,418.663 508.128,415.473 499.001,413.921C497.709,413.701 496.839,412.476 497.059,411.184C497.279,409.891 498.501,409.025 499.796,409.241C509.503,410.892 518.716,414.285 527.181,419.326C528.308,419.997 528.677,421.453 528.006,422.579C527.562,423.325 526.774,423.738 525.965,423.738Z" fill="#F2D398" />
    </g>
</svg>
